<svg xmlns="http://www.w3.org/2000/svg" viewBox="0 0 6000 4000"><defs><style>.cls-1{fill:#6f00c6;}.cls-2{fill:#5680e9;}</style></defs><title>32Asset 1</title><g id="Layer_2" data-name="Layer 2"><g id="Layer_1-2" data-name="Layer 1"><path class="cls-1" d="M5373.5,2516.5c-384.38-35.73-1103-1170-1513.5-1415.5C3469.34,867.36,2701,2437,2303,2608s-668-1078-895-1201-245,466-545,368S256,782,0,806.79V4000H6000V2222.28S5771.5,2553.5,5373.5,2516.5Z"/><path class="cls-2" d="M0,0V806.79C256,782,563,1677,863,1775s318-491,545-368,497,1372,895,1201S3469.34,867.36,3860,1101c410.5,245.5,1129.12,1379.77,1513.5,1415.5,398,37,626.5-294.22,626.5-294.22V0Z"/></g></g></svg>