<svg xmlns="http://www.w3.org/2000/svg" viewBox="0 0 2700.24 399.64"><defs><style>.cls-1{fill:#010101;}</style></defs><title>Asset 2</title><g id="Layer_2" data-name="Layer 2"><g id="Layer_1-2" data-name="Layer 1"><path d="M682.17,431.15l-28.8-15.5a103.32,103.32,0,0,1-44-45.17q-15.13-29.66-15.14-71.65V201.42q0-42,15.14-71.66a104.13,104.13,0,0,1,44-45.29q28.8-15.61,69.33-15.62,33.45,0,59.82,14.4t43.58,41.87q17.21,27.47,23.8,66.29H780.56q-3.9-17.58-12.08-30a58.12,58.12,0,0,0-19.78-19,51.73,51.73,0,0,0-26-6.59q-18.8,0-32,7.69a49.81,49.81,0,0,0-20.14,22.46q-7,14.78-7,35.53v97.41q0,20.75,7,35.4a49.92,49.92,0,0,0,20.14,22.34q13.18,7.68,32,7.69a53.66,53.66,0,0,0,26.37-6.47,55.44,55.44,0,0,0,19.77-18.92q8.07-12.45,11.72-30.28H849.9q-6.84,38.82-24,66.29t-43.46,41.87q-26.24,14.4-59.69,14.4Z" transform="translate(0 -68.85)"/><path d="M906.05,72.51H973v355h-66.9Zm24.17,0h213.62V137H930.22Zm0,146.48H1117v64.46H930.22Zm0,144.05h213.62v64.45H930.22Z" transform="translate(0 -68.85)"/><path d="M1204.88,72.51h81.79l132.08,272-5.86,6.35V72.51h64V427.25h-82.27L1263,159.42l5.86-6.34V427.25h-64Z" transform="translate(0 -68.85)"/><path d="M1525.68,72.51h260.25V137H1525.68Zm96.68,29.05h66.89V427.49h-66.89Z" transform="translate(0 -68.85)"/><path d="M1825,72.27h66.89V427.49H1825Zm26.61,147.94h123.53a32.16,32.16,0,0,0,18.07-5.12,33.28,33.28,0,0,0,12.08-14.65,55.84,55.84,0,0,0,4.52-22,53.37,53.37,0,0,0-4.27-22,33.27,33.27,0,0,0-12.09-14.64,32.6,32.6,0,0,0-18.31-5.13H1851.61V72.27h128.9q29.29,0,51.52,13.18t34.42,37.23q12.21,24,12.21,55.79t-12.21,55.78a88.8,88.8,0,0,1-34.54,37.23q-22.35,13.18-51.4,13.19h-128.9Zm74.7,53.47,71.54-11.23,95.7,165H2012.5Z" transform="translate(0 -68.85)"/><path d="M2240.28,72.51h42.48l135.74,355h-72l-85-242.43-85,242.43h-72Zm-70.56,233.64h186.77v64.46H2169.72Z" transform="translate(0 -68.85)"/><path d="M2462.45,72.51h66.89v355h-66.89ZM2492.23,363h208v64.45h-208Z" transform="translate(0 -68.85)"/><path class="cls-1" d="M0,69H563S303.72,335.89,174.09,468.49c5.55-10.33,9.26-18.94,16.66-27.55-5.55,0-13-22.39-18.52-32.72L150,418.55c-3.7,3.45-11.11,1.72-14.82-1.72,0-1.72-1.85-1.72-1.85-3.44-3.7-6.89-5.55-13.78-9.26-22.39-9.26,5.16-18.52,8.61-27.78,12.05L5.56,366.89H70.37L100,389.28c7.4-6.89,13-17.22,18.52-22.39h16.66c5.56,5.17,11.12,15.5,18.52,22.39,7.41-6.89,14.82-15.5,22.23-20.67h11.11c5.56,5.17,13,13.78,18.52,18.94h1.85s11.11-13.77,16.67-18.94h13S403.73,136.14,403.73,134.42C270.39,112,0,69,0,69" transform="translate(0 -68.85)"/></g></g></svg>