<svg id="Layer_1" data-name="Layer 1" xmlns="http://www.w3.org/2000/svg" viewBox="0 0 2700.24 399.64"><defs><style>.cls-1{fill:#010101;}</style></defs><title>GymsharkBlogLogo</title><path d="M2775.17,2003.66l-28.8-15.5a103.32,103.32,0,0,1-43.95-45.17q-15.14-29.65-15.14-71.65v-97.41q0-42,15.14-71.66a104.13,104.13,0,0,1,43.95-45.29q28.8-15.62,69.33-15.62,33.45,0,59.82,14.4t43.58,41.87q17.21,27.46,23.8,66.29h-69.34q-3.9-17.58-12.08-30a58.12,58.12,0,0,0-19.78-19.05,51.73,51.73,0,0,0-26-6.59q-18.79,0-32,7.69a49.81,49.81,0,0,0-20.14,22.46q-7,14.77-7,35.53v97.41q0,20.75,7,35.4a49.92,49.92,0,0,0,20.14,22.34q13.19,7.68,32,7.69a53.66,53.66,0,0,0,26.37-6.47,55.44,55.44,0,0,0,19.77-18.92q8.07-12.45,11.72-30.28h69.34q-6.84,38.82-24.05,66.29t-43.46,41.87q-26.23,14.4-59.69,14.4Z" transform="translate(-2093 -1641.36)"/><path d="M2999.05,1645H3066v355h-66.9Zm24.17,0h213.62v64.45H3023.22Zm0,146.48H3210V1856H3023.22Zm0,144h213.62V2000H3023.22Z" transform="translate(-2093 -1641.36)"/><path d="M3297.88,1645h81.79l132.08,272-5.86,6.35V1645h64v354.74h-82.27L3356,1731.93l5.86-6.34v274.17h-64Z" transform="translate(-2093 -1641.36)"/><path d="M3618.68,1645h260.25v64.45H3618.68Zm96.68,29h66.89V2000h-66.89Z" transform="translate(-2093 -1641.36)"/><path d="M3918,1644.78h66.89V2000H3918Zm26.61,147.94h123.53a32.16,32.16,0,0,0,18.07-5.12,33.28,33.28,0,0,0,12.08-14.65,55.84,55.84,0,0,0,4.52-22,53.37,53.37,0,0,0-4.27-22,33.27,33.27,0,0,0-12.09-14.64,32.6,32.6,0,0,0-18.31-5.13H3944.61v-64.45h128.9q29.3,0,51.52,13.18t34.42,37.23q12.21,24,12.21,55.79t-12.21,55.78a88.8,88.8,0,0,1-34.54,37.23q-22.35,13.18-51.4,13.19h-128.9Zm74.7,53.47,71.54-11.23,95.7,165H4105.5Z" transform="translate(-2093 -1641.36)"/><path d="M4333.28,1645h42.48l135.74,355h-72l-85-242.43-85,242.43h-72Zm-70.56,233.64h186.77v64.46H4262.72Z" transform="translate(-2093 -1641.36)"/><path d="M4555.45,1645h66.89v355h-66.89Zm29.78,290.53h208V2000h-208Z" transform="translate(-2093 -1641.36)"/><path class="cls-1" d="M2093,1641.49h563S2396.72,1908.4,2267.09,2041c5.55-10.33,9.26-18.94,16.66-27.55-5.55,0-13-22.39-18.52-32.72L2243,1991.06c-3.7,3.45-11.11,1.72-14.82-1.72,0-1.72-1.85-1.72-1.85-3.45-3.7-6.88-5.55-13.77-9.26-22.38-9.26,5.16-18.52,8.61-27.78,12l-90.74-36.16h64.81l29.64,22.39c7.4-6.89,13-17.22,18.52-22.39h16.66c5.56,5.17,11.12,15.5,18.52,22.39,7.41-6.89,14.82-15.5,22.23-20.67h11.11c5.56,5.17,13,13.78,18.52,18.94h1.85s11.11-13.77,16.67-18.94h13s166.68-232.47,166.68-234.19c-133.34-22.39-403.73-65.44-403.73-65.44" transform="translate(-2093 -1641.36)"/><polygon class="cls-1" points="200.22 162.7 87.74 99.71 287.95 146.95 200.22 162.7"/></svg>