<svg xmlns="http://www.w3.org/2000/svg" viewBox="0 0 3095.72 399.64"><defs><style>.cls-1{fill:#010101;}</style></defs><title>32Asset 3</title><g id="Layer_2" data-name="Layer 2"><g id="Layer_1-2" data-name="Layer 1"><path d="M291.5,229v69.34q0,39.56-16,69.7a113,113,0,0,1-45.29,46.63q-29.29,16.49-67.87,16.48-38.82,0-68.48-15.5A110.94,110.94,0,0,1,48,371.83q-16.23-28.32-16.23-65.68V201.42q0-39.55,16-69.58A113.32,113.32,0,0,1,93,85.33q29.3-16.48,67.87-16.48,31.73,0,58.59,13.06a121.9,121.9,0,0,1,44.8,37q18,23.92,24.29,55.42H216.31a46.85,46.85,0,0,0-12.09-19.41,56.68,56.68,0,0,0-19.77-12.45,66.32,66.32,0,0,0-23.56-4.28q-17.82,0-31.37,7.82a53.19,53.19,0,0,0-21,22.21q-7.45,14.41-7.45,33.21V306.15q0,16.61,7.57,29.3A50,50,0,0,0,130.13,355q13.91,6.84,32.22,6.84,18.08,0,31.62-7.45a50.43,50.43,0,0,0,20.87-21.61q7.33-14.14,7.33-33.44v-5.86H168.46V229Z" transform="translate(-31.74 -68.85)"/><path d="M482.42,290.53v137H415.53v-137L311,72.51H381.1L449,225.34,516.85,72.51h70.06Z" transform="translate(-31.74 -68.85)"/><path d="M839.6,72.51h88.13v355H866.94V151.86l2.44,15.62L801.51,387.94H742.43L674.56,172.36l2.44-20.5V427.49H616.21v-355h88.14L772,311.77Z" transform="translate(-31.74 -68.85)"/><path d="M1092,431.15,1067.75,426a213.17,213.17,0,0,1-45.66-15,175.31,175.31,0,0,1-38.2-23.8l31-55.18a150.07,150.07,0,0,0,47.37,26,169.64,169.64,0,0,0,55.17,9.16q32.71,0,50.78-11.11t18.07-31.37v-.25q0-14.15-8.06-22.46t-21-12.21a256,256,0,0,0-33.21-7.08,4.32,4.32,0,0,0-1.34-.24,4.32,4.32,0,0,1-1.34-.24l-5.37-.74q-35.65-5.61-59.09-14t-39.79-29.54q-16.37-21.12-16.36-59.94v-.25q0-34.41,15.38-58.83t44.68-37.23q29.3-12.83,70.8-12.82a180.16,180.16,0,0,1,38.94,4.39,211.38,211.38,0,0,1,38.94,12.7,216.09,216.09,0,0,1,36.13,20l-28.32,56.64a179.61,179.61,0,0,0-42.84-22q-22.34-7.81-42.85-7.82-30.77,0-47.61,10.13t-16.84,28.45v.24q0,15.38,8.79,24.29A52.25,52.25,0,0,0,1097.66,209q12.93,4.16,36.37,8.79a14.7,14.7,0,0,0,2,.37,17.13,17.13,0,0,1,2,.37,26.28,26.28,0,0,1,2.81.61c.89.24,1.83.45,2.8.61q33.71,6.59,56.28,16T1237.55,266q15.14,20.88,15.14,57v.49q0,33.93-15.87,58.1t-46.27,36.87q-30.39,12.69-73.12,12.69Z" transform="translate(-31.74 -68.85)"/><path d="M1308.84,72.51h66.89v355h-66.89Zm31,146.73h206.79v64.45H1339.84ZM1503.17,72.51h66.9v355h-66.9Z" transform="translate(-31.74 -68.85)"/><path d="M1744.87,72.51h42.48l135.75,355h-72l-85-242.43-85,242.43h-72Zm-70.55,233.64h186.76v64.46H1674.32Z" transform="translate(-31.74 -68.85)"/><path d="M1967,72.27h66.9V427.49H1967Zm26.61,147.94h123.54a32.15,32.15,0,0,0,18.06-5.12,33.3,33.3,0,0,0,12.09-14.65,56,56,0,0,0,4.51-22,53.21,53.21,0,0,0-4.27-22,33.32,33.32,0,0,0-12.08-14.64,32.62,32.62,0,0,0-18.31-5.13H1993.65V72.27h128.91q29.3,0,51.51,13.18t34.43,37.23q12.2,24,12.2,55.79t-12.2,55.78A88.89,88.89,0,0,1,2174,271.48q-22.34,13.18-51.39,13.19H1993.65Zm74.71,53.47,71.53-11.23,95.71,165h-81.06Z" transform="translate(-31.74 -68.85)"/><path d="M2293,72.51h66.89v355H2293Zm40.28,216.31L2475.59,72.51h84.22l-218,303.22Zm59.08-41L2450,211.43l124.76,216.06h-79.35Z" transform="translate(-31.74 -68.85)"/><path class="cls-1" d="M2588.45,86h539s-248.22,255.54-372.33,382.48c5.32-9.89,8.86-18.13,16-26.38-5.32,0-12.41-21.43-17.73-31.32l-21.28,9.89c-3.55,3.3-10.64,1.65-14.18-1.65,0-1.65-1.78-1.65-1.78-3.3-3.54-6.59-5.32-13.18-8.86-21.43-8.87,4.95-17.73,8.25-26.6,11.54l-86.88-34.62h62.06l28.37,21.43c7.09-6.59,12.41-16.48,17.73-21.43h16c5.31,4.95,10.63,14.84,17.73,21.43,7.09-6.59,14.18-14.83,21.27-19.78h10.64c5.32,4.95,12.41,13.19,17.73,18.13H2787s10.64-13.18,16-18.13h12.41S2975,150.31,2975,148.66C2847.32,127.23,2588.45,86,2588.45,86" transform="translate(-31.74 -68.85)"/><polygon class="cls-1" points="2756.93 162.7 2644.45 99.71 2844.67 146.95 2756.93 162.7"/></g></g></svg>